<svg xmlns="http://www.w3.org/2000/svg" xmlns:xlink="http://www.w3.org/1999/xlink" width="1366" height="750" viewBox="0 0 1366 750"><defs><style>.a{clip-path:url(#f);}.b{fill:url(#a);}.c{fill:#fff;}</style><linearGradient id="a" x1="0.908" y1="0.266" x2="0.102" y2="0.755" gradientUnits="objectBoundingBox"><stop offset="0" stop-color="#ce25bd"/><stop offset="1" stop-color="#6d1bbf"/></linearGradient><clipPath id="f"><rect width="1366" height="750"/></clipPath></defs><g id="e" class="a"><rect class="c" width="1366" height="750"/><g transform="translate(-462 70)"><path class="b" d="M0,256.528c0-87,68.985-159.129,159.215-172.317C192.336,33.732,252.4,0,320.995,0,425.38,0,510,78.114,510,174.472c0,87-68.985,159.129-159.215,172.317C317.665,397.268,257.6,431,189.005,431,84.621,431,0,352.886,0,256.528Z" transform="translate(392 49)"/><ellipse class="b" cx="123.5" cy="125.5" rx="123.5" ry="125.5" transform="translate(463 171)"/></g><g transform="translate(662.999 791.619) rotate(-60)"><path class="b" d="M0,367.491c0-122.72,84.611-225.27,197.536-250.2C242.863,47.113,326.794,0,422.847,0c144.169,0,261.04,106.152,261.04,237.1,0,112.651-86.487,206.951-202.448,231.1C443.117,559.5,354.274,623.473,250.8,623.473,112.286,623.473,0,508.866,0,367.491Z" transform="translate(434 119)"/><ellipse class="b" cx="138.596" cy="140.84" rx="138.596" ry="140.84" transform="translate(492.621 389.193)"/></g></g></svg>