<svg xmlns="http://www.w3.org/2000/svg" xmlns:xlink="http://www.w3.org/1999/xlink" width="1366" height="750" viewBox="0 0 1366 750"><defs><style>.a{clip-path:url(#f);}.b{fill:url(#a);}.c{fill:#fff;}</style><linearGradient id="a" x1="0.908" y1="0.266" x2="0.102" y2="0.755" gradientUnits="objectBoundingBox"><stop offset="0" stop-color="#ce25bd"/><stop offset="1" stop-color="#6d1bbf"/></linearGradient><clipPath id="f"><rect width="1366" height="750"/></clipPath></defs><g id="e" class="a"><rect class="c" width="1366" height="750"/><g transform="translate(-462 70)"><path class="b" d="M0,256.528c0-87,68.985-159.129,159.215-172.317C192.336,33.732,252.4,0,320.995,0,425.38,0,510,78.114,510,174.472c0,87-68.985,159.129-159.215,172.317C317.665,397.268,257.6,431,189.005,431,84.621,431,0,352.886,0,256.528Z" transform="translate(392 49)"/><ellipse class="b" cx="123.5" cy="125.5" rx="123.5" ry="125.5" transform="translate(463 171)"/></g><g transform="translate(547.442 769.204) rotate(-60)"><path class="b" d="M25,447.578c0-149.464,103.256-274.363,241.064-304.723C321.38,57.38,423.806,0,541.025,0,716.963,0,859.587,129.286,859.587,288.768c0,137.2-105.546,252.052-247.06,281.466-46.765,111.2-155.186,189.112-281.465,189.112C162.029,759.346,25,619.763,25,447.578Z" transform="translate(409 119)"/><ellipse class="b" cx="164.543" cy="167.208" rx="164.543" ry="167.208" transform="translate(503.596 420.655)"/></g></g></svg>